<?xml version="1.0" standalone="no"?><svg xmlns="http://www.w3.org/2000/svg" viewBox="0 0 1440 320"><path fill="white" fill-opacity="1" d="M0,128L24,138.7C48,149,96,171,144,149.3C192,128,240,64,288,64C336,64,384,128,432,176C480,224,528,256,576,250.7C624,245,672,203,720,176C768,149,816,139,864,138.7C912,139,960,149,1008,138.7C1056,128,1104,96,1152,74.7C1200,53,1248,43,1296,58.7C1344,75,1392,117,1416,138.7L1440,160L1440,0L1416,0C1392,0,1344,0,1296,0C1248,0,1200,0,1152,0C1104,0,1056,0,1008,0C960,0,912,0,864,0C816,0,768,0,720,0C672,0,624,0,576,0C528,0,480,0,432,0C384,0,336,0,288,0C240,0,192,0,144,0C96,0,48,0,24,0L0,0Z"></path></svg>