<?xml version="1.0" standalone="no"?><svg xmlns="http://www.w3.org/2000/svg" viewBox="0 0 1440 320"><path fill="white" fill-opacity="1" d="M0,128L24,138.7C48,149,96,171,144,149.3C192,128,240,64,288,64C336,64,384,128,432,176C480,224,528,256,576,250.7C624,245,672,203,720,176C768,149,816,139,864,138.7C912,139,960,149,1008,138.7C1056,128,1104,96,1152,74.7C1200,53,1248,43,1296,58.7C1344,75,1392,117,1416,138.7L1440,160L1440,320L1416,320C1392,320,1344,320,1296,320C1248,320,1200,320,1152,320C1104,320,1056,320,1008,320C960,320,912,320,864,320C816,320,768,320,720,320C672,320,624,320,576,320C528,320,480,320,432,320C384,320,336,320,288,320C240,320,192,320,144,320C96,320,48,320,24,320L0,320Z"></path></svg>